<?xml version="1.0" standalone="no"?>
<!DOCTYPE svg PUBLIC "-//W3C//DTD SVG 20010904//EN"
 "http://www.w3.org/TR/2001/REC-SVG-20010904/DTD/svg10.dtd">
<svg version="1.0" xmlns="http://www.w3.org/2000/svg"
 width="500.000000pt" height="500.000000pt" viewBox="0 0 500.000000 500.000000"
 preserveAspectRatio="xMidYMid meet">

<g transform="translate(0.000000,500.000000) scale(0.100000,-0.100000)"
fill="#000000" stroke="none">
<path d="M2547 4959 c-410 -53 -775 -255 -976 -539 -94 -134 -161 -288 -161
-374 0 -34 -2 -36 -87 -78 -93 -45 -214 -131 -274 -195 -108 -112 -213 -295
-269 -466 l-33 -98 -51 -26 c-28 -14 -91 -53 -141 -86 -262 -174 -433 -347
-513 -517 -30 -64 -36 -88 -40 -167 -10 -197 75 -341 256 -436 69 -37 225 -87
269 -87 38 0 81 -27 99 -63 9 -17 39 -60 65 -94 27 -35 49 -68 49 -74 0 -6 6
-9 12 -7 8 3 19 48 29 116 8 61 17 113 20 115 25 23 369 138 484 162 102 21
249 19 302 -4 111 -51 109 -198 -4 -309 -94 -91 -372 -208 -582 -244 l-67 -11
-78 57 c-42 32 -79 56 -81 54 -2 -1 7 -50 20 -108 18 -75 21 -106 13 -109 -7
-2 -30 -21 -52 -42 -40 -37 -41 -39 -41 -104 0 -65 1 -67 41 -105 24 -22 60
-44 85 -50 100 -27 292 20 455 111 48 27 88 48 89 47 2 -2 -8 -59 -22 -128
-34 -174 -43 -475 -18 -605 34 -181 99 -301 207 -381 89 -65 140 -79 293 -79
129 0 285 25 285 45 0 5 -26 23 -57 41 -75 43 -197 160 -223 214 -12 24 -26
74 -32 110 -24 147 35 292 195 478 l51 59 32 -129 c84 -337 228 -546 449 -648
186 -87 414 -78 680 26 113 45 358 169 362 184 2 6 -83 10 -240 10 -223 0
-248 2 -322 23 -97 28 -150 58 -198 111 -80 89 -76 237 11 365 43 64 751 806
769 806 6 0 21 -24 32 -52 17 -46 19 -74 17 -203 -2 -135 -5 -156 -28 -215
-62 -156 -190 -320 -372 -480 -53 -45 -96 -86 -96 -91 0 -13 99 -29 183 -29
106 0 196 22 277 67 90 49 133 85 194 162 194 245 320 608 376 1081 11 96 24
198 28 225 l8 50 13 -65 c19 -98 26 -413 12 -523 -36 -269 -124 -494 -277
-697 -39 -52 -85 -108 -103 -124 -51 -48 -41 -58 37 -36 122 34 183 59 270
109 378 217 552 553 552 1066 0 268 -41 512 -145 854 -14 46 -22 87 -19 90 11
11 84 -82 113 -144 76 -161 115 -388 128 -742 7 -207 11 -212 64 -85 84 204
129 473 129 787 0 343 -55 641 -175 945 -181 459 -542 833 -998 1036 -183 81
-462 172 -642 209 -208 42 -465 56 -638 34z m-1271 -1554 c75 -19 157 -44 182
-56 44 -19 46 -21 28 -34 -47 -35 -264 -78 -399 -79 -115 -1 -132 10 -124 77
10 72 69 127 139 127 20 0 99 -16 174 -35z"/>
</g>
</svg>
